<svg width="141" height="144" viewBox="0 0 141 144" fill="none" xmlns="http://www.w3.org/2000/svg">
<path d="M52.6528 24.0698C58.1927 26.9421 64.808 26.9413 70.3475 24.0698C94.2837 11.6608 123 29.1434 123 56.1161C123 73.0907 108.927 143.259 86.9252 143.259C79.2072 143.259 72.1834 135.386 65.4515 119.189C63.9962 115.688 59.0037 115.687 57.5485 119.189C50.8166 135.386 43.793 143.259 36.0748 143.259C14.2882 143.259 -5.72205e-06 73.6307 -5.72205e-06 56.1161C0.00047576 29.1523 28.7067 11.6555 52.6528 24.0698ZM36.0753 136.836C40.64 136.836 46.3046 129.506 51.6166 116.724C55.267 107.942 67.7318 107.938 71.3836 116.724C76.6953 129.505 82.3602 136.836 86.9249 136.836C100.995 136.836 116.576 76.0489 116.576 56.1165C116.576 33.9226 92.9459 19.591 73.3038 29.7729C65.9125 33.6046 57.0874 33.6046 49.6962 29.7729C30.0744 19.6009 6.42442 33.9017 6.42442 56.1165C6.42418 75.9632 21.9946 136.836 36.0753 136.836Z" fill="#1EBEB6"/>
<path d="M123 44C128.015 42.7875 129.995 41.0479 132 36C132.616 40.4331 134.707 42.0074 140 44C134.533 44.0759 133.223 46.2557 132 51.5C131.379 46.2842 129.917 44.2396 123 44Z" stroke="#1EBEB6"/>
<path d="M38 73.5C42.3141 93.9297 77.0601 101.645 88 73.5" stroke="#1EBEB6" stroke-width="3"/>
<circle cx="86.5" cy="54.5" r="6.5" fill="#1EBEB6"/>
<circle cx="109.5" cy="114.5" r="20.5" fill="white" stroke="#1EBEB6" stroke-width="4"/>
<path d="M12 10C17.0147 8.78746 18.9949 7.04787 21 2C21.6155 6.43314 23.707 8.00741 29 10C23.5327 10.0759 22.2227 12.2557 21 17.5C20.3786 12.2842 18.9173 10.2396 12 10Z" stroke="#1EBEB6"/>
<circle cx="36.5" cy="54.5" r="6.5" fill="#1EBEB6"/>
<path d="M96.5 114.5C101.311 116.374 103.493 118.101 106 123C111.19 116.58 112.5 112 121 108" stroke="#1EBEB6" stroke-width="2"/>
</svg>
